<svg id="visual" viewBox="0 0 900 450" width="900" height="450" xmlns="http://www.w3.org/2000/svg" xmlns:xlink="http://www.w3.org/1999/xlink" version="1.1"><path d="M0 317L21.5 318.8C43 320.7 86 324.3 128.8 331.2C171.7 338 214.3 348 257.2 357.8C300 367.7 343 377.3 385.8 366.5C428.7 355.7 471.3 324.3 514.2 322.7C557 321 600 349 642.8 352.7C685.7 356.3 728.3 335.7 771.2 328.2C814 320.7 857 326.3 878.5 329.2L900 332L900 451L878.5 451C857 451 814 451 771.2 451C728.3 451 685.7 451 642.8 451C600 451 557 451 514.2 451C471.3 451 428.7 451 385.8 451C343 451 300 451 257.2 451C214.3 451 171.7 451 128.8 451C86 451 43 451 21.5 451L0 451Z" fill="#fea2a2" stroke-linecap="round" stroke-linejoin="miter"></path></svg>