<svg id="visual" viewBox="0 0 900 450" width="900" height="450" xmlns="http://www.w3.org/2000/svg" xmlns:xlink="http://www.w3.org/1999/xlink" version="1.1"><path d="M0 311L21.5 315.7C43 320.3 86 329.7 128.8 335.2C171.7 340.7 214.3 342.3 257.2 337C300 331.7 343 319.3 385.8 321.3C428.7 323.3 471.3 339.7 514.2 345C557 350.3 600 344.7 642.8 350.5C685.7 356.3 728.3 373.7 771.2 373C814 372.3 857 353.7 878.5 344.3L900 335L900 451L878.5 451C857 451 814 451 771.2 451C728.3 451 685.7 451 642.8 451C600 451 557 451 514.2 451C471.3 451 428.7 451 385.8 451C343 451 300 451 257.2 451C214.3 451 171.7 451 128.8 451C86 451 43 451 21.5 451L0 451Z" fill="#fea2a2" stroke-linecap="round" stroke-linejoin="miter"></path></svg>